<?xml version="1.0" encoding="UTF-8" standalone="no"?>
<!-- Created with Inkscape (http://www.inkscape.org/) -->

<svg
   width="100mm"
   height="100mm"
   viewBox="0 0 100 100"
   version="1.1"
   id="svg5"
   inkscape:version="1.2.2 (b0a8486541, 2022-12-01)"
   sodipodi:docname="beatdrop_drop_logo.svg"
   xmlns:inkscape="http://www.inkscape.org/namespaces/inkscape"
   xmlns:sodipodi="http://sodipodi.sourceforge.net/DTD/sodipodi-0.dtd"
   xmlns="http://www.w3.org/2000/svg"
   xmlns:svg="http://www.w3.org/2000/svg">
  <sodipodi:namedview
     id="namedview7"
     pagecolor="#ffffff"
     bordercolor="#000000"
     borderopacity="0.25"
     inkscape:showpageshadow="2"
     inkscape:pageopacity="0.0"
     inkscape:pagecheckerboard="0"
     inkscape:deskcolor="#d1d1d1"
     inkscape:document-units="mm"
     showgrid="false"
     showguides="false"
     inkscape:zoom="0.77326038"
     inkscape:cx="134.49545"
     inkscape:cy="264.4646"
     inkscape:window-width="1920"
     inkscape:window-height="1043"
     inkscape:window-x="0"
     inkscape:window-y="0"
     inkscape:window-maximized="1"
     inkscape:current-layer="layer1" />
  <defs
     id="defs2">
    <rect
       x="554.41926"
       y="17.550578"
       width="471.91173"
       height="410.49118"
       id="rect170" />
    <rect
       x="108.22696"
       y="201.13492"
       width="347.47391"
       height="312.04288"
       id="rect305" />
  </defs>
  <g
     inkscape:label="Layer 1"
     inkscape:groupmode="layer"
     id="layer1"
     transform="translate(-25.974033,-48.863136)">
    <rect
       style="fill:#333333;stroke-width:0.264583"
       id="rect249"
       width="100"
       height="100"
       x="25.974033"
       y="48.863136" />
    <path
       id="text228"
       style="font-size:14.1111px;font-family:'Fira Mono';-inkscape-font-specification:'Fira Mono';fill:#ececec;stroke-width:0.264583"
       d="M 75.313657 63.602288 L 69.288185 76.04804 L 70.2473 76.471787 L 76.258819 64.05394 L 75.313657 63.602288 z M 78.686061 63.602288 L 77.754852 64.05394 L 83.765854 76.471787 L 84.725486 76.04804 L 78.686061 63.602288 z M 65.478082 80.803822 C 63.177975 82.680596 61.837477 84.500801 61.837477 87.718129 C 61.837477 90.935456 63.177975 92.755661 65.478082 94.632435 L 66.084763 93.983379 C 64.080989 92.191271 63.079262 90.667346 63.079262 87.718129 C 63.079262 84.754801 64.052767 83.259097 66.084763 81.452878 L 65.478082 80.803822 z M 88.535589 80.803822 L 87.928908 81.452878 C 89.960904 83.259097 90.934409 84.754801 90.934409 87.718129 C 90.934409 90.667346 89.932682 92.191271 87.928908 93.983379 L 88.535589 94.632435 C 90.835696 92.755661 92.176194 90.935456 92.176194 87.718129 C 92.176194 84.500801 90.835696 82.680596 88.535589 80.803822 z M 69.24581 94.180783 L 69.24581 95.225164 L 76.301194 95.225164 L 76.301194 94.180783 L 69.24581 94.180783 z M 77.712477 94.180783 L 77.712477 95.225164 L 84.76786 95.225164 L 84.76786 94.180783 L 77.712477 94.180783 z M 44.819394 98.879721 L 43.888185 99.331373 L 49.899188 111.74922 L 50.858819 111.32599 L 44.819394 98.879721 z M 109.17981 98.879721 L 103.15433 111.32599 L 104.11397 111.74922 L 110.12549 99.331373 L 109.17981 98.879721 z M 38.907094 107.96754 C 38.272095 107.96754 37.777964 108.47562 37.777964 109.11062 C 37.777964 109.47751 37.961505 109.84428 38.229616 110.04183 L 37.56609 112.82151 L 38.638893 112.82151 L 39.781976 110.21133 C 39.979531 109.77389 40.04966 109.44893 40.04966 109.09615 C 40.04966 108.47526 39.556204 107.96754 38.907094 107.96754 z M 55.825958 107.96754 C 55.120403 107.96754 54.584173 108.51788 54.584173 109.20932 C 54.584173 109.91488 55.120403 110.45111 55.825958 110.45111 C 56.545623 110.45111 57.067742 109.91488 57.067742 109.20932 C 57.067742 108.51788 56.545623 107.96754 55.825958 107.96754 z M 98.159291 107.96754 C 97.453737 107.96754 96.917506 108.51788 96.917506 109.20932 C 96.917506 109.91488 97.453737 110.45111 98.159291 110.45111 C 98.878956 110.45111 99.401076 109.91488 99.401076 109.20932 C 99.401076 108.51788 98.878956 107.96754 98.159291 107.96754 z M 115.10658 107.96754 C 114.47158 107.96754 113.97796 108.47562 113.97796 109.11062 C 113.97796 109.47751 114.16099 109.84428 114.4291 110.04183 L 113.76609 112.82151 L 114.83838 112.82151 L 115.98146 110.21133 C 116.17901 109.77389 116.24966 109.44893 116.24966 109.09615 C 116.24966 108.47526 115.75569 107.96754 115.10658 107.96754 z M 44.819394 116.51895 L 43.888185 116.97061 L 49.899188 129.38794 L 50.858819 128.96471 L 44.819394 116.51895 z M 61.752728 116.51895 L 60.821518 116.97061 L 66.832521 129.38794 L 67.792152 128.96471 L 61.752728 116.51895 z M 92.246474 116.51895 L 86.221002 128.96471 L 87.180633 129.38794 L 93.192152 116.97061 L 92.246474 116.51895 z M 109.17981 116.51895 L 103.15433 128.96471 L 104.11397 129.38794 L 110.12549 116.97061 L 109.17981 116.51895 z " />
  </g>
</svg>
