<?xml version="1.0" encoding="UTF-8" standalone="no"?>
<!-- Created with Inkscape (http://www.inkscape.org/) -->

<svg
   width="160mm"
   height="60mm"
   viewBox="0 0 160 60"
   version="1.1"
   id="svg5"
   inkscape:version="1.2.2 (b0a8486541, 2022-12-01)"
   sodipodi:docname="beatdrop_logo.svg"
   xmlns:inkscape="http://www.inkscape.org/namespaces/inkscape"
   xmlns:sodipodi="http://sodipodi.sourceforge.net/DTD/sodipodi-0.dtd"
   xmlns="http://www.w3.org/2000/svg"
   xmlns:svg="http://www.w3.org/2000/svg">
  <sodipodi:namedview
     id="namedview7"
     pagecolor="#ffffff"
     bordercolor="#000000"
     borderopacity="0.25"
     inkscape:showpageshadow="2"
     inkscape:pageopacity="0.0"
     inkscape:pagecheckerboard="0"
     inkscape:deskcolor="#d1d1d1"
     inkscape:document-units="mm"
     showgrid="false"
     inkscape:zoom="1.4254587"
     inkscape:cx="154.33628"
     inkscape:cy="240.97506"
     inkscape:window-width="1920"
     inkscape:window-height="1043"
     inkscape:window-x="0"
     inkscape:window-y="0"
     inkscape:window-maximized="1"
     inkscape:current-layer="layer1" />
  <defs
     id="defs2">
    <rect
       x="146.8279"
       y="736.4668"
       width="507.01829"
       height="186.83474"
       id="rect5887" />
    <rect
       x="115.0205"
       y="766.70184"
       width="604.6015"
       height="290.79703"
       id="rect4688" />
  </defs>
  <g
     inkscape:label="Layer 1"
     inkscape:groupmode="layer"
     id="layer1"
     transform="translate(-16.435623,-94.123375)">
    <rect
       style="fill:#333333;fill-opacity:1;stroke-width:0.264583"
       id="rect215"
       width="160"
       height="60"
       x="16.435623"
       y="94.123375" />
    <path
       id="text5885"
       style="font-size:10.6667px;font-family:'Fira Mono';-inkscape-font-specification:'Fira Mono';text-align:start;white-space:pre;shape-inside:url(#rect5887);display:inline;fill:#ededed;fill-opacity:1"
       d="M 194.19805 736.95999 L 193.22735 737.84476 C 194.65669 739.41276 195.24493 740.61796 195.24493 742.37796 C 195.24493 744.13796 194.76335 745.23649 193.22735 746.91116 L 194.19805 747.79593 C 195.88339 746.34526 196.95001 744.71397 196.95001 742.37796 C 196.95001 740.04195 195.88339 738.41066 194.19805 736.95999 z M 424.59845 736.95999 L 423.62774 737.84476 C 425.05708 739.41276 425.64337 740.61796 425.64337 742.37796 C 425.64337 744.13796 425.16375 745.23649 423.62774 746.91116 L 424.59845 747.79593 C 426.28378 746.34526 427.3504 744.71397 427.3504 742.37796 C 427.3504 740.04195 426.28378 738.41066 424.59845 736.95999 z M 187.62774 738.19632 L 187.83086 741.18265 L 189.02618 741.18265 L 189.21758 738.19632 L 187.62774 738.19632 z M 418.02813 738.19632 L 418.23126 741.18265 L 419.42657 741.18265 L 419.61798 738.19632 L 418.02813 738.19632 z M 154.37969 742.1221 L 154.37969 743.42288 L 158.4754 743.42288 L 158.4754 742.1221 L 154.37969 742.1221 z M 179.9793 742.1221 L 179.9793 743.42288 L 184.07696 743.42288 L 184.07696 742.1221 L 179.9793 742.1221 z M 410.3797 742.1221 L 410.3797 743.42288 L 414.4754 743.42288 L 414.4754 742.1221 L 410.3797 742.1221 z M 150.02813 743.91312 C 149.3668 743.91312 148.84454 744.45866 148.84454 745.09866 C 148.84454 745.74933 149.3668 746.29202 150.02813 746.29202 C 150.68946 746.29202 151.21172 745.74933 151.21172 745.09866 C 151.21172 744.45866 150.68946 743.91312 150.02813 743.91312 z M 162.82891 743.91312 C 162.16758 743.91312 161.64336 744.45866 161.64336 745.09866 C 161.64336 745.74933 162.16758 746.29202 162.82891 746.29202 C 163.49025 746.29202 164.0125 745.74933 164.0125 745.09866 C 164.0125 744.45866 163.49025 743.91312 162.82891 743.91312 z M 175.62774 743.91312 C 174.9664 743.91312 174.44415 744.45866 174.44415 745.09866 C 174.44415 745.74933 174.9664 746.29202 175.62774 746.29202 C 176.28907 746.29202 176.81133 745.74933 176.81133 745.09866 C 176.81133 744.45866 176.28907 743.91312 175.62774 743.91312 z M 406.02813 743.91312 C 405.3668 743.91312 404.84454 744.45866 404.84454 745.09866 C 404.84454 745.74933 405.3668 746.29202 406.02813 746.29202 C 406.68947 746.29202 407.21173 745.74933 407.21173 745.09866 C 407.21173 744.45866 406.68947 743.91312 406.02813 743.91312 z M 384.16095 746.77249 L 384.16095 748.09476 L 389.49493 748.09476 L 389.49493 746.77249 L 384.16095 746.77249 z M 169.85821 750.29202 C 168.17287 751.74269 167.10625 753.37594 167.10625 755.71194 C 167.10625 758.04795 168.17287 759.67924 169.85821 761.12991 L 170.82891 760.24515 C 169.29291 758.57048 168.81133 757.47195 168.81133 755.71194 C 168.81133 753.95194 169.39957 752.74674 170.82891 751.17874 L 169.85821 750.29202 z M 200.59844 750.29202 L 199.62774 751.17874 C 201.05708 752.74674 201.64336 753.95194 201.64336 755.71194 C 201.64336 757.47195 201.16374 758.57048 199.62774 760.24515 L 200.59844 761.12991 C 202.28378 759.67924 203.3504 758.04795 203.3504 755.71194 C 203.3504 753.37594 202.28378 751.74269 200.59844 750.29202 z M 381.05743 750.29202 C 379.37209 751.74269 378.30548 753.37594 378.30548 755.71194 C 378.30548 758.04795 379.37209 759.67924 381.05743 761.12991 L 382.02813 760.24515 C 380.49213 758.57048 380.01251 757.47195 380.01251 755.71194 C 380.01251 753.95194 380.5988 752.74674 382.02813 751.17874 L 381.05743 750.29202 z M 400.2586 750.29202 C 398.57326 751.74269 397.5047 753.37594 397.5047 755.71194 C 397.5047 758.04795 398.57326 759.67924 400.2586 761.12991 L 401.22735 760.24515 C 399.69135 758.57048 399.21173 757.47195 399.21173 755.71194 C 399.21173 753.95194 399.79802 752.74674 401.22735 751.17874 L 400.2586 750.29202 z M 430.99884 750.29202 L 430.02813 751.17874 C 431.45747 752.74674 432.04376 753.95194 432.04376 755.71194 C 432.04376 757.47195 431.56414 758.57048 430.02813 760.24515 L 430.99884 761.12991 C 432.68417 759.67924 433.75079 758.04795 433.75079 755.71194 C 433.75079 753.37594 432.68417 751.74269 430.99884 750.29202 z M 148.45 750.72952 L 147.1375 751.3389 L 151.60625 760.63968 L 152.91875 760.03226 L 148.45 750.72952 z M 391.64923 750.72952 L 390.33673 751.3389 L 394.80743 760.63968 L 396.11993 760.03226 L 391.64923 750.72952 z M 182.02813 751.86038 C 180.08679 751.86038 179.07305 753.39652 179.07305 755.74319 C 179.07305 758.1432 180.08679 759.62601 182.02813 759.62601 C 183.96947 759.62601 184.98321 758.08987 184.98321 755.74319 C 184.98321 753.34319 183.96947 751.86038 182.02813 751.86038 z M 188.42852 751.86038 C 186.48718 751.86038 185.47344 753.39652 185.47344 755.74319 C 185.47344 758.1432 186.48718 759.62601 188.42852 759.62601 C 190.36986 759.62601 191.3836 758.08987 191.3836 755.74319 C 191.3836 753.34319 190.36986 751.86038 188.42852 751.86038 z M 418.82891 751.86038 C 416.88758 751.86038 415.87384 753.39652 415.87384 755.74319 C 415.87384 758.1432 416.88758 759.62601 418.82891 759.62601 C 420.77025 759.62601 421.78204 758.08987 421.78204 755.74319 C 421.78204 753.34319 420.77025 751.86038 418.82891 751.86038 z M 182.02813 753.13968 C 182.86013 753.13968 183.19024 753.92986 183.19024 755.74319 C 183.19024 757.5352 182.88147 758.34671 182.02813 758.34671 C 181.2068 758.34671 180.86602 757.55653 180.86602 755.74319 C 180.86602 753.92986 181.19613 753.13968 182.02813 753.13968 z M 188.42852 753.13968 C 189.26052 753.13968 189.59063 753.92986 189.59063 755.74319 C 189.59063 757.5352 189.28186 758.34671 188.42852 758.34671 C 187.60719 758.34671 187.26641 757.55653 187.26641 755.74319 C 187.26641 753.92986 187.59652 753.13968 188.42852 753.13968 z M 418.82891 753.13968 C 419.66092 753.13968 419.99102 753.92986 419.99102 755.74319 C 419.99102 757.5352 419.68225 758.34671 418.82891 758.34671 C 418.00758 758.34671 417.66485 757.55653 417.66485 755.74319 C 417.66485 753.92986 417.99691 753.13968 418.82891 753.13968 z M 410.3797 755.45609 L 410.3797 756.75687 L 414.4754 756.75687 L 414.4754 755.45609 L 410.3797 755.45609 z M 533.39923 763.62601 L 532.42853 764.51077 C 533.85786 766.07878 534.44415 767.28397 534.44415 769.04398 C 534.44415 770.80398 533.96453 771.90251 532.42853 773.57718 L 533.39923 774.4639 C 535.08457 773.01323 536.15118 771.37998 536.15118 769.04398 C 536.15118 766.70797 535.08457 765.07668 533.39923 763.62601 z M 199.64922 764.06351 L 198.33672 764.67093 L 202.80743 773.97366 L 204.11797 773.36429 L 199.64922 764.06351 z M 385.24884 764.06351 L 383.93829 764.67093 L 388.40704 773.97366 L 389.71954 773.36429 L 385.24884 764.06351 z M 430.82891 764.86429 L 431.03009 767.85062 L 432.2254 767.85062 L 432.41681 764.86429 L 430.82891 764.86429 z M 526.82892 764.86429 L 527.03009 767.85062 L 528.2254 767.85062 L 528.41681 764.86429 L 526.82892 764.86429 z M 156.42852 767.02835 C 155.79919 767.02835 155.30743 767.54144 155.30743 768.14944 C 155.30743 768.75745 155.79919 769.25882 156.42852 769.25882 C 157.05786 769.25882 157.5379 768.75745 157.5379 768.14944 C 157.5379 767.54144 157.05786 767.02835 156.42852 767.02835 z M 160.78008 768.78812 L 160.78008 770.09085 L 164.87579 770.09085 L 164.87579 768.78812 L 160.78008 768.78812 z M 167.18047 768.78812 L 167.18047 770.09085 L 171.27618 770.09085 L 171.27618 768.78812 L 167.18047 768.78812 z M 173.58086 768.78812 L 173.58086 770.09085 L 177.67657 770.09085 L 177.67657 768.78812 L 173.58086 768.78812 z M 179.9793 768.78812 L 179.9793 770.09085 L 184.07696 770.09085 L 184.07696 768.78812 L 179.9793 768.78812 z M 186.37969 768.78812 L 186.37969 770.09085 L 190.4754 770.09085 L 190.4754 768.78812 L 186.37969 768.78812 z M 218.37969 768.78812 L 218.37969 770.09085 L 222.4754 770.09085 L 222.4754 768.78812 L 218.37969 768.78812 z M 224.78008 768.78812 L 224.78008 770.09085 L 228.87579 770.09085 L 228.87579 768.78812 L 224.78008 768.78812 z M 231.18047 768.78812 L 231.18047 770.09085 L 235.27618 770.09085 L 235.27618 768.78812 L 231.18047 768.78812 z M 237.58087 768.78812 L 237.58087 770.09085 L 241.67657 770.09085 L 241.67657 768.78812 L 237.58087 768.78812 z M 243.9793 768.78812 L 243.9793 770.09085 L 248.07696 770.09085 L 248.07696 768.78812 L 243.9793 768.78812 z M 250.37969 768.78812 L 250.37969 770.09085 L 254.4754 770.09085 L 254.4754 768.78812 L 250.37969 768.78812 z M 288.78008 768.78812 L 288.78008 770.09085 L 292.87579 770.09085 L 292.87579 768.78812 L 288.78008 768.78812 z M 295.18048 768.78812 L 295.18048 770.09085 L 299.27618 770.09085 L 299.27618 768.78812 L 295.18048 768.78812 z M 333.58087 768.78812 L 333.58087 770.09085 L 337.67657 770.09085 L 337.67657 768.78812 L 333.58087 768.78812 z M 339.9793 768.78812 L 339.9793 770.09085 L 344.07696 770.09085 L 344.07696 768.78812 L 339.9793 768.78812 z M 346.37969 768.78812 L 346.37969 770.09085 L 350.4754 770.09085 L 350.4754 768.78812 L 346.37969 768.78812 z M 352.78009 768.78812 L 352.78009 770.09085 L 356.87579 770.09085 L 356.87579 768.78812 L 352.78009 768.78812 z M 359.18048 768.78812 L 359.18048 770.09085 L 363.27618 770.09085 L 363.27618 768.78812 L 359.18048 768.78812 z M 365.58087 768.78812 L 365.58087 770.09085 L 369.67657 770.09085 L 369.67657 768.78812 L 365.58087 768.78812 z M 455.18048 768.78812 L 455.18048 770.09085 L 459.27618 770.09085 L 459.27618 768.78812 L 455.18048 768.78812 z M 461.58087 768.78812 L 461.58087 770.09085 L 465.67657 770.09085 L 465.67657 768.78812 L 461.58087 768.78812 z M 467.98126 768.78812 L 467.98126 770.09085 L 472.07696 770.09085 L 472.07696 768.78812 L 467.98126 768.78812 z M 474.3797 768.78812 L 474.3797 770.09085 L 478.4754 770.09085 L 478.4754 768.78812 L 474.3797 768.78812 z M 480.78009 768.78812 L 480.78009 770.09085 L 484.87579 770.09085 L 484.87579 768.78812 L 480.78009 768.78812 z M 487.18048 768.78812 L 487.18048 770.09085 L 491.27618 770.09085 L 491.27618 768.78812 L 487.18048 768.78812 z M 519.18048 768.78812 L 519.18048 770.09085 L 523.27618 770.09085 L 523.27618 768.78812 L 519.18048 768.78812 z M 544.78009 768.78812 L 544.78009 770.09085 L 548.87579 770.09085 L 548.87579 768.78812 L 544.78009 768.78812 z M 551.18048 768.78812 L 551.18048 770.09085 L 555.27618 770.09085 L 555.27618 768.78812 L 551.18048 768.78812 z M 557.58087 768.78812 L 557.58087 770.09085 L 561.67657 770.09085 L 561.67657 768.78812 L 557.58087 768.78812 z M 563.98126 768.78812 L 563.98126 770.09085 L 568.07696 770.09085 L 568.07696 768.78812 L 563.98126 768.78812 z M 570.3797 768.78812 L 570.3797 770.09085 L 574.47735 770.09085 L 574.47735 768.78812 L 570.3797 768.78812 z M 608.78009 768.78812 L 608.78009 770.09085 L 612.87579 770.09085 L 612.87579 768.78812 L 608.78009 768.78812 z M 615.18048 768.78812 L 615.18048 770.09085 L 619.27618 770.09085 L 619.27618 768.78812 L 615.18048 768.78812 z M 621.58087 768.78812 L 621.58087 770.09085 L 625.67657 770.09085 L 625.67657 768.78812 L 621.58087 768.78812 z M 627.98126 768.78812 L 627.98126 770.09085 L 632.07696 770.09085 L 632.07696 768.78812 L 627.98126 768.78812 z M 634.3797 768.78812 L 634.3797 770.09085 L 638.47735 770.09085 L 638.47735 768.78812 L 634.3797 768.78812 z M 194.82891 770.58109 C 194.16758 770.58109 193.64336 771.12468 193.64336 771.76468 C 193.64336 772.41535 194.16758 772.95999 194.82891 772.95999 C 195.49025 772.95999 196.01251 772.41535 196.01251 771.76468 C 196.01251 771.12468 195.49025 770.58109 194.82891 770.58109 z M 214.02813 770.58109 C 213.3668 770.58109 212.87579 771.08171 212.87579 771.72171 C 212.87579 772.12704 213.05774 772.47998 213.37774 772.68265 L 212.83282 774.94241 L 213.96368 774.94241 L 214.73126 773.20413 C 215.04059 772.5108 215.19024 772.1601 215.19024 771.73343 C 215.19024 771.08276 214.70013 770.58109 214.02813 770.58109 z M 258.82891 770.58109 C 258.16758 770.58109 257.64337 771.12468 257.64337 771.76468 C 257.64337 772.41535 258.16758 772.95999 258.82891 772.95999 C 259.49025 772.95999 260.01251 772.41535 260.01251 771.76468 C 260.01251 771.12468 259.49025 770.58109 258.82891 770.58109 z M 278.02813 770.58109 C 277.3668 770.58109 276.84454 771.12468 276.84454 771.76468 C 276.84454 772.41535 277.3668 772.95999 278.02813 772.95999 C 278.68947 772.95999 279.21173 772.41535 279.21173 771.76468 C 279.21173 771.12468 278.68947 770.58109 278.02813 770.58109 z M 303.62774 770.58109 C 302.96641 770.58109 302.44415 771.12468 302.44415 771.76468 C 302.44415 772.41535 302.96641 772.95999 303.62774 772.95999 C 304.28908 772.95999 304.81133 772.41535 304.81133 771.76468 C 304.81133 771.12468 304.28908 770.58109 303.62774 770.58109 z M 329.22735 770.58109 C 328.56602 770.58109 328.07696 771.08171 328.07696 771.72171 C 328.07696 772.12704 328.25696 772.47998 328.57696 772.68265 L 328.03399 774.94241 L 329.16485 774.94241 L 329.93243 773.20413 C 330.24176 772.5108 330.39141 772.1601 330.39141 771.73343 C 330.39141 771.08276 329.89935 770.58109 329.22735 770.58109 z M 374.02813 770.58109 C 373.3668 770.58109 372.84454 771.12468 372.84454 771.76468 C 372.84454 772.41535 373.3668 772.95999 374.02813 772.95999 C 374.68947 772.95999 375.21173 772.41535 375.21173 771.76468 C 375.21173 771.12468 374.68947 770.58109 374.02813 770.58109 z M 425.22735 770.58109 C 424.56602 770.58109 424.04376 771.12468 424.04376 771.76468 C 424.04376 772.41535 424.56602 772.95999 425.22735 772.95999 C 425.88869 772.95999 426.4129 772.41535 426.4129 771.76468 C 426.4129 771.12468 425.88869 770.58109 425.22735 770.58109 z M 450.82891 770.58109 C 450.16758 770.58109 449.67657 771.08171 449.67657 771.72171 C 449.67657 772.12704 449.85852 772.47998 450.17852 772.68265 L 449.6336 774.94241 L 450.76446 774.94241 L 451.53204 773.20413 C 451.84137 772.5108 451.99102 772.1601 451.99102 771.73343 C 451.99102 771.08276 451.50092 770.58109 450.82891 770.58109 z M 495.62774 770.58109 C 494.96641 770.58109 494.44415 771.12468 494.44415 771.76468 C 494.44415 772.41535 494.96641 772.95999 495.62774 772.95999 C 496.28908 772.95999 496.81329 772.41535 496.81329 771.76468 C 496.81329 771.12468 496.28908 770.58109 495.62774 770.58109 z M 514.82892 770.58109 C 514.16758 770.58109 513.64532 771.12468 513.64532 771.76468 C 513.64532 772.41535 514.16758 772.95999 514.82892 772.95999 C 515.49025 772.95999 516.01251 772.41535 516.01251 771.76468 C 516.01251 771.12468 515.49025 770.58109 514.82892 770.58109 z M 540.42853 770.58109 C 539.76719 770.58109 539.27618 771.08171 539.27618 771.72171 C 539.27618 772.12704 539.45813 772.47998 539.77813 772.68265 L 539.23321 774.94241 L 540.36407 774.94241 L 541.13165 773.20413 C 541.44098 772.5108 541.59063 772.1601 541.59063 771.73343 C 541.59063 771.08276 541.10053 770.58109 540.42853 770.58109 z M 578.82892 770.58109 C 578.16758 770.58109 577.64532 771.12468 577.64532 771.76468 C 577.64532 772.41535 578.16758 772.95999 578.82892 772.95999 C 579.49025 772.95999 580.01251 772.41535 580.01251 771.76468 C 580.01251 771.12468 579.49025 770.58109 578.82892 770.58109 z M 604.42853 770.58109 C 603.76719 770.58109 603.27618 771.08171 603.27618 771.72171 C 603.27618 772.12704 603.45813 772.47998 603.77814 772.68265 L 603.23321 774.94241 L 604.36407 774.94241 L 605.13165 773.20413 C 605.44099 772.5108 605.59064 772.1601 605.59064 771.73343 C 605.59064 771.08276 605.10053 770.58109 604.42853 770.58109 z M 642.82892 770.58109 C 642.16758 770.58109 641.64532 771.12468 641.64532 771.76468 C 641.64532 772.41535 642.16758 772.95999 642.82892 772.95999 C 643.49025 772.95999 644.01251 772.41535 644.01251 771.76468 C 644.01251 771.12468 643.49025 770.58109 642.82892 770.58109 z M 156.42852 770.67679 C 155.78852 770.67679 155.30743 771.15578 155.30743 771.77444 C 155.30743 772.16911 155.48923 772.50147 155.7879 772.70413 L 155.26641 774.88968 L 156.36407 774.88968 L 157.1004 773.20413 C 157.3884 772.55346 157.5379 772.18083 157.5379 771.78616 C 157.5379 771.15683 157.06852 770.67679 156.42852 770.67679 z M 435.36212 773.43851 L 435.36212 774.76273 L 440.69415 774.76273 L 440.69415 773.43851 L 435.36212 773.43851 z M 443.79962 776.95999 L 442.82891 777.84476 C 444.25825 779.41276 444.84454 780.61796 444.84454 782.37796 C 444.84454 784.13796 444.36492 785.23649 442.82891 786.91116 L 443.79962 787.79593 C 445.48495 786.34526 446.55157 784.71397 446.55157 782.37796 C 446.55157 780.04196 445.48495 778.41066 443.79962 776.95999 z M 509.05743 776.95999 C 507.37209 778.41066 506.30548 780.04196 506.30548 782.37796 C 506.30548 784.71397 507.37209 786.34526 509.05743 787.79593 L 510.02813 786.91116 C 508.49213 785.23649 508.01251 784.13796 508.01251 782.37796 C 508.01251 780.61796 508.5988 779.41276 510.02813 777.84476 L 509.05743 776.95999 z M 392.4168 777.20413 L 391.76641 778.47366 L 394.28399 779.47757 L 394.74298 778.62405 L 392.4168 777.20413 z M 482.01837 777.20413 L 481.36602 778.47366 L 483.8836 779.47757 L 484.34259 778.62405 L 482.01837 777.20413 z M 266.81719 777.39749 L 262.33672 786.69827 L 263.64922 787.30569 L 268.11798 778.00491 L 266.81719 777.39749 z M 308.45001 777.39749 L 307.13751 778.00491 L 311.60626 787.30569 L 312.91876 786.69827 L 308.45001 777.39749 z M 478.01837 777.39749 L 473.5379 786.69827 L 474.8504 787.30569 L 479.31915 778.00491 L 478.01837 777.39749 z M 155.63946 777.47171 L 155.63946 787.23148 L 157.20586 787.23148 L 157.20586 777.47171 L 155.63946 777.47171 z M 200.43829 777.47171 L 200.43829 787.23148 L 202.00665 787.23148 L 202.00665 777.47171 L 200.43829 777.47171 z M 213.23907 777.47171 L 213.23907 787.23148 L 214.80743 787.23148 L 214.80743 777.47171 L 213.23907 777.47171 z M 322.03985 777.47171 L 322.03985 787.23148 L 323.60626 787.23148 L 323.60626 777.47171 L 322.03985 777.47171 z M 379.63946 777.47171 L 379.63946 787.23148 L 381.20782 787.23148 L 381.20782 777.47171 L 379.63946 777.47171 z M 450.03985 777.47171 L 450.03985 787.23148 L 451.60626 787.23148 L 451.60626 777.47171 L 450.03985 777.47171 z M 597.23907 777.47171 L 597.23907 787.23148 L 598.80743 787.23148 L 598.80743 777.47171 L 597.23907 777.47171 z M 648.43829 777.47171 L 648.43829 787.23148 L 650.00665 787.23148 L 650.00665 777.47171 L 648.43829 777.47171 z M 258.02813 778.19632 L 258.23126 781.18265 L 259.42462 781.18265 L 259.61797 778.19632 L 258.02813 778.19632 z M 398.82891 778.19632 L 399.03009 781.18265 L 400.2254 781.18265 L 400.4168 778.19632 L 398.82891 778.19632 z M 501.22931 778.19632 L 501.43048 781.18265 L 502.62579 781.18265 L 502.8172 778.19632 L 501.22931 778.19632 z M 533.22931 778.19632 L 533.43048 781.18265 L 534.62579 781.18265 L 534.8172 778.19632 L 533.22931 778.19632 z M 584.42853 778.19632 L 584.63165 781.18265 L 585.82501 781.18265 L 586.01837 778.19632 L 584.42853 778.19632 z M 521.22931 778.5264 C 519.28797 778.5264 518.27423 780.06254 518.27423 782.40921 C 518.27423 784.80922 519.28797 786.29202 521.22931 786.29202 C 523.17064 786.29202 524.18243 784.75588 524.18243 782.40921 C 524.18243 780.00921 523.17064 778.5264 521.22931 778.5264 z M 527.62774 778.5264 C 525.68641 778.5264 524.67462 780.06254 524.67462 782.40921 C 524.67462 784.80922 525.68641 786.29202 527.62774 786.29202 C 529.56908 786.29202 530.58282 784.75588 530.58282 782.40921 C 530.58282 780.00921 529.56908 778.5264 527.62774 778.5264 z M 521.22931 779.80765 C 522.06131 779.80765 522.39142 780.59587 522.39142 782.40921 C 522.39142 784.20121 522.08264 785.01273 521.22931 785.01273 C 520.40797 785.01273 520.06524 784.22255 520.06524 782.40921 C 520.06524 780.59587 520.3973 779.80765 521.22931 779.80765 z M 527.62774 779.80765 C 528.45975 779.80765 528.79181 780.59587 528.79181 782.40921 C 528.79181 784.20121 528.48108 785.01273 527.62774 785.01273 C 526.80641 785.01273 526.46563 784.22255 526.46563 782.40921 C 526.46563 780.59587 526.79574 779.80765 527.62774 779.80765 z M 173.58086 782.1221 L 173.58086 783.42288 L 177.67657 783.42288 L 177.67657 782.1221 L 173.58086 782.1221 z M 237.58087 782.1221 L 237.58087 783.42288 L 241.67657 783.42288 L 241.67657 782.1221 L 237.58087 782.1221 z M 243.9793 782.1221 L 243.9793 783.42288 L 248.07696 783.42288 L 248.07696 782.1221 L 243.9793 782.1221 z M 250.37969 782.1221 L 250.37969 783.42288 L 254.4754 783.42288 L 254.4754 782.1221 L 250.37969 782.1221 z M 282.37969 782.1221 L 282.37969 783.42288 L 286.4754 783.42288 L 286.4754 782.1221 L 282.37969 782.1221 z M 403.9793 782.1221 L 403.9793 783.42288 L 408.07696 783.42288 L 408.07696 782.1221 L 403.9793 782.1221 z M 410.3797 782.1221 L 410.3797 783.42288 L 414.4754 783.42288 L 414.4754 782.1221 L 410.3797 782.1221 z M 557.58087 782.1221 L 557.58087 783.42288 L 561.67657 783.42288 L 561.67657 782.1221 L 557.58087 782.1221 z M 169.22735 783.91312 C 168.56601 783.91312 168.04375 784.45866 168.04375 785.09866 C 168.04375 785.74933 168.56601 786.29202 169.22735 786.29202 C 169.88868 786.29202 170.4129 785.74933 170.4129 785.09866 C 170.4129 784.45866 169.88868 783.91312 169.22735 783.91312 z M 182.02813 783.91312 C 181.3668 783.91312 180.84454 784.45866 180.84454 785.09866 C 180.84454 785.74933 181.3668 786.29202 182.02813 786.29202 C 182.68946 786.29202 183.21172 785.74933 183.21172 785.09866 C 183.21172 784.45866 182.68946 783.91312 182.02813 783.91312 z M 233.22735 783.91312 C 232.56601 783.91312 232.04376 784.45866 232.04376 785.09866 C 232.04376 785.74933 232.56601 786.29202 233.22735 786.29202 C 233.88868 786.29202 234.4129 785.74933 234.4129 785.09866 C 234.4129 784.45866 233.88868 783.91312 233.22735 783.91312 z M 290.82891 783.91312 C 290.16758 783.91312 289.64337 784.45866 289.64337 785.09866 C 289.64337 785.74933 290.16758 786.29202 290.82891 786.29202 C 291.49025 786.29202 292.01251 785.74933 292.01251 785.09866 C 292.01251 784.45866 291.49025 783.91312 290.82891 783.91312 z M 386.82891 783.91312 C 386.16758 783.91312 385.67657 784.41569 385.67657 785.05569 C 385.67657 785.46103 385.85852 785.81201 386.17852 786.01468 L 385.6336 788.2764 L 386.76446 788.2764 L 387.53204 786.53812 C 387.84137 785.84478 387.99102 785.49213 387.99102 785.06546 C 387.99102 784.41479 387.50092 783.91312 386.82891 783.91312 z M 418.82891 783.91312 C 418.16758 783.91312 417.64337 784.45866 417.64337 785.09866 C 417.64337 785.74933 418.16758 786.29202 418.82891 786.29202 C 419.49025 786.29202 420.01251 785.74933 420.01251 785.09866 C 420.01251 784.45866 419.49025 783.91312 418.82891 783.91312 z M 425.22735 783.91312 C 424.56602 783.91312 424.04376 784.45866 424.04376 785.09866 C 424.04376 785.74933 424.56602 786.29202 425.22735 786.29202 C 425.88869 786.29202 426.4129 785.74933 426.4129 785.09866 C 426.4129 784.45866 425.88869 783.91312 425.22735 783.91312 z M 431.62774 783.91312 C 430.96641 783.91312 430.44415 784.45866 430.44415 785.09866 C 430.44415 785.74933 430.96641 786.29202 431.62774 786.29202 C 432.28908 786.29202 432.81134 785.74933 432.81134 785.09866 C 432.81134 784.45866 432.28908 783.91312 431.62774 783.91312 z M 489.22931 783.91312 C 488.56797 783.91312 488.04376 784.45866 488.04376 785.09866 C 488.04376 785.74933 488.56797 786.29202 489.22931 786.29202 C 489.89064 786.29202 490.4129 785.74933 490.4129 785.09866 C 490.4129 784.45866 489.89064 783.91312 489.22931 783.91312 z M 553.22931 783.91312 C 552.56797 783.91312 552.04376 784.45866 552.04376 785.09866 C 552.04376 785.74933 552.56797 786.29202 553.22931 786.29202 C 553.89064 786.29202 554.4129 785.74933 554.4129 785.09866 C 554.4129 784.45866 553.89064 783.91312 553.22931 783.91312 z M 566.02814 783.91312 C 565.3668 783.91312 564.84454 784.45866 564.84454 785.09866 C 564.84454 785.74933 565.3668 786.29202 566.02814 786.29202 C 566.68947 786.29202 567.21173 785.74933 567.21173 785.09866 C 567.21173 784.45866 566.68947 783.91312 566.02814 783.91312 z M 435.36212 786.77249 L 435.36212 788.09476 L 440.69415 788.09476 L 440.69415 786.77249 L 435.36212 786.77249 z M 620.96173 786.77249 L 620.96173 788.09476 L 626.29571 788.09476 L 626.29571 786.77249 L 620.96173 786.77249 z M 627.36212 786.77249 L 627.36212 788.09476 L 632.69415 788.09476 L 632.69415 786.77249 L 627.36212 786.77249 z M 206.99883 790.29202 L 206.02813 791.17874 C 207.45747 792.74675 208.04376 793.95194 208.04376 795.71195 C 208.04376 797.47195 207.56413 798.57048 206.02813 800.24515 L 206.99883 801.12991 C 208.68417 799.67924 209.75079 798.04795 209.75079 795.71195 C 209.75079 793.37594 208.68417 791.74269 206.99883 790.29202 z M 196.4168 790.72952 L 191.93829 800.03226 L 193.24883 800.63968 L 197.71954 791.3389 L 196.4168 790.72952 z M 423.64923 790.72952 L 422.33673 791.3389 L 426.80743 800.63968 L 428.11993 800.03226 L 423.64923 790.72952 z M 471.61798 790.72952 L 467.13751 800.03226 L 468.45001 800.63968 L 472.91876 791.3389 L 471.61798 790.72952 z M 510.01837 790.72952 L 505.5379 800.03226 L 506.8504 800.63968 L 511.31915 791.3389 L 510.01837 790.72952 z M 618.8172 790.72952 L 614.33868 800.03226 L 615.64923 800.63968 L 620.11993 791.3389 L 618.8172 790.72952 z M 155.63946 790.8057 L 155.63946 800.56546 L 157.20586 800.56546 L 157.20586 790.8057 L 155.63946 790.8057 z M 213.23907 790.8057 L 213.23907 800.56546 L 214.80743 800.56546 L 214.80743 790.8057 L 213.23907 790.8057 z M 232.43829 790.8057 L 232.43829 800.56546 L 234.00665 800.56546 L 234.00665 790.8057 L 232.43829 790.8057 z M 264.43829 790.8057 L 264.43829 800.56546 L 266.00665 800.56546 L 266.00665 790.8057 L 264.43829 790.8057 z M 277.23907 790.8057 L 277.23907 800.56546 L 278.80743 800.56546 L 278.80743 790.8057 L 277.23907 790.8057 z M 296.43829 790.8057 L 296.43829 800.56546 L 298.00665 800.56546 L 298.00665 790.8057 L 296.43829 790.8057 z M 315.63946 790.8057 L 315.63946 800.56546 L 317.20782 800.56546 L 317.20782 790.8057 L 315.63946 790.8057 z M 386.03985 790.8057 L 386.03985 800.56546 L 387.60626 800.56546 L 387.60626 790.8057 L 386.03985 790.8057 z M 405.23907 790.8057 L 405.23907 800.56546 L 406.80743 800.56546 L 406.80743 790.8057 L 405.23907 790.8057 z M 450.03985 790.8057 L 450.03985 800.56546 L 451.60626 800.56546 L 451.60626 790.8057 L 450.03985 790.8057 z M 488.43829 790.8057 L 488.43829 800.56546 L 490.00665 800.56546 L 490.00665 790.8057 L 488.43829 790.8057 z M 501.23907 790.8057 L 501.23907 800.56546 L 502.80743 800.56546 L 502.80743 790.8057 L 501.23907 790.8057 z M 533.23907 790.8057 L 533.23907 800.56546 L 534.80743 800.56546 L 534.80743 790.8057 L 533.23907 790.8057 z M 552.43829 790.8057 L 552.43829 800.56546 L 554.00665 800.56546 L 554.00665 790.8057 L 552.43829 790.8057 z M 565.23907 790.8057 L 565.23907 800.56546 L 566.80743 800.56546 L 566.80743 790.8057 L 565.23907 790.8057 z M 584.43829 790.8057 L 584.43829 800.56546 L 586.00665 800.56546 L 586.00665 790.8057 L 584.43829 790.8057 z M 597.23907 790.8057 L 597.23907 800.56546 L 598.80743 800.56546 L 598.80743 790.8057 L 597.23907 790.8057 z M 635.63946 790.8057 L 635.63946 800.56546 L 637.20782 800.56546 L 637.20782 790.8057 L 635.63946 790.8057 z M 648.43829 790.8057 L 648.43829 800.56546 L 650.00665 800.56546 L 650.00665 790.8057 L 648.43829 790.8057 z M 168.42852 791.5303 L 168.63165 794.51663 L 169.82501 794.51663 L 170.01836 791.5303 L 168.42852 791.5303 z M 181.22735 791.5303 L 181.43047 794.51663 L 182.62579 794.51663 L 182.81719 791.5303 L 181.22735 791.5303 z M 322.02813 791.5303 L 322.23126 794.51663 L 323.42462 794.51663 L 323.61798 791.5303 L 322.02813 791.5303 z M 379.62774 791.5303 L 379.83087 794.51663 L 381.02618 794.51663 L 381.21759 791.5303 L 379.62774 791.5303 z M 443.62774 791.5303 L 443.83087 794.51663 L 445.02618 794.51663 L 445.21759 791.5303 L 443.62774 791.5303 z M 173.58086 795.45609 L 173.58086 796.75687 L 177.67657 796.75687 L 177.67657 795.45609 L 173.58086 795.45609 z M 327.18048 795.45609 L 327.18048 796.75687 L 331.27618 796.75687 L 331.27618 795.45609 L 327.18048 795.45609 z M 333.58087 795.45609 L 333.58087 796.75687 L 337.67657 796.75687 L 337.67657 795.45609 L 333.58087 795.45609 z M 365.58087 795.45609 L 365.58087 796.75687 L 369.67657 796.75687 L 369.67657 795.45609 L 365.58087 795.45609 z M 371.9793 795.45609 L 371.9793 796.75687 L 376.07696 796.75687 L 376.07696 795.45609 L 371.9793 795.45609 z M 342.02813 797.2471 C 341.3668 797.2471 340.84454 797.79069 340.84454 798.4307 C 340.84454 799.08136 341.3668 799.62601 342.02813 799.62601 C 342.68947 799.62601 343.21173 799.08136 343.21173 798.4307 C 343.21173 797.79069 342.68947 797.2471 342.02813 797.2471 z M 361.22735 797.2471 C 360.56602 797.2471 360.04376 797.79069 360.04376 798.4307 C 360.04376 799.08136 360.56602 799.62601 361.22735 799.62601 C 361.88869 799.62601 362.4129 799.08136 362.4129 798.4307 C 362.4129 797.79069 361.88869 797.2471 361.22735 797.2471 z M 198.56133 800.10648 L 198.56133 801.42874 L 203.89532 801.42874 L 203.89532 800.10648 L 198.56133 800.10648 z M 208.25665 803.62601 C 206.57131 805.07668 205.50469 806.70797 205.50469 809.04398 C 205.50469 811.37998 206.57131 813.01323 208.25665 814.4639 L 209.22735 813.57718 C 207.69135 811.90251 207.21172 810.80398 207.21172 809.04398 C 207.21172 807.28397 207.79801 806.07878 209.22735 804.51077 L 208.25665 803.62601 z M 520.59845 803.62601 L 519.62774 804.51077 C 521.05708 806.07878 521.64532 807.28397 521.64532 809.04398 C 521.64532 810.80398 521.16375 811.90251 519.62774 813.57718 L 520.59845 814.4639 C 522.28378 813.01323 523.3504 811.37998 523.3504 809.04398 C 523.3504 806.70797 522.28378 805.07668 520.59845 803.62601 z M 194.01836 803.8721 L 193.36602 805.14163 L 195.8836 806.14359 L 196.34258 805.29007 L 194.01836 803.8721 z M 506.8504 804.06351 L 505.5379 804.67093 L 510.00665 813.97366 L 511.31915 813.36429 L 506.8504 804.06351 z M 558.04962 804.06351 L 556.73712 804.67093 L 561.20782 813.97366 L 562.51837 813.36429 L 558.04962 804.06351 z M 155.63946 804.13773 L 155.63946 813.89749 L 157.20586 813.89749 L 157.20586 804.13773 L 155.63946 804.13773 z M 213.23907 804.13773 L 213.23907 813.89749 L 214.80743 813.89749 L 214.80743 804.13773 L 213.23907 804.13773 z M 264.43829 804.13773 L 264.43829 813.89749 L 266.00665 813.89749 L 266.00665 804.13773 L 264.43829 804.13773 z M 277.23907 804.13773 L 277.23907 813.89749 L 278.80743 813.89749 L 278.80743 804.13773 L 277.23907 804.13773 z M 315.63946 804.13773 L 315.63946 813.89749 L 317.20782 813.89749 L 317.20782 804.13773 L 315.63946 804.13773 z M 341.23907 804.13773 L 341.23907 813.89749 L 342.80743 813.89749 L 342.80743 804.13773 L 341.23907 804.13773 z M 360.43829 804.13773 L 360.43829 813.89749 L 362.00665 813.89749 L 362.00665 804.13773 L 360.43829 804.13773 z M 386.03985 804.13773 L 386.03985 813.89749 L 387.60626 813.89749 L 387.60626 804.13773 L 386.03985 804.13773 z M 405.23907 804.13773 L 405.23907 813.89749 L 406.80743 813.89749 L 406.80743 804.13773 L 405.23907 804.13773 z M 443.63946 804.13773 L 443.63946 813.89749 L 445.20782 813.89749 L 445.20782 804.13773 L 443.63946 804.13773 z M 450.03985 804.13773 L 450.03985 813.89749 L 451.60626 813.89749 L 451.60626 804.13773 L 450.03985 804.13773 z M 469.23907 804.13773 L 469.23907 813.89749 L 470.80743 813.89749 L 470.80743 804.13773 L 469.23907 804.13773 z M 501.23907 804.13773 L 501.23907 813.89749 L 502.80743 813.89749 L 502.80743 804.13773 L 501.23907 804.13773 z M 533.23907 804.13773 L 533.23907 813.89749 L 534.80743 813.89749 L 534.80743 804.13773 L 533.23907 804.13773 z M 552.43829 804.13773 L 552.43829 813.89749 L 554.00665 813.89749 L 554.00665 804.13773 L 552.43829 804.13773 z M 565.23907 804.13773 L 565.23907 813.89749 L 566.80743 813.89749 L 566.80743 804.13773 L 565.23907 804.13773 z M 584.43829 804.13773 L 584.43829 813.89749 L 586.00665 813.89749 L 586.00665 804.13773 L 584.43829 804.13773 z M 597.23907 804.13773 L 597.23907 813.89749 L 598.80743 813.89749 L 598.80743 804.13773 L 597.23907 804.13773 z M 616.43829 804.13773 L 616.43829 813.89749 L 618.00665 813.89749 L 618.00665 804.13773 L 616.43829 804.13773 z M 648.43829 804.13773 L 648.43829 813.89749 L 650.00665 813.89749 L 650.00665 804.13773 L 648.43829 804.13773 z M 232.42852 804.86429 L 232.63165 807.85062 L 233.82501 807.85062 L 234.01837 804.86429 L 232.42852 804.86429 z M 296.42852 804.86429 L 296.63165 807.85062 L 297.82501 807.85062 L 298.01837 804.86429 L 296.42852 804.86429 z M 430.82891 804.86429 L 431.03009 807.85062 L 432.2254 807.85062 L 432.41681 804.86429 L 430.82891 804.86429 z M 488.42852 804.86429 L 488.63165 807.85062 L 489.82501 807.85062 L 490.01837 804.86429 L 488.42852 804.86429 z M 635.62775 804.86429 L 635.83087 807.85062 L 637.02618 807.85062 L 637.21759 804.86429 L 635.62775 804.86429 z M 173.58086 808.78812 L 173.58086 810.09085 L 177.67657 810.09085 L 177.67657 808.78812 L 173.58086 808.78812 z M 237.58087 808.78812 L 237.58087 810.09085 L 241.67657 810.09085 L 241.67657 808.78812 L 237.58087 808.78812 z M 243.9793 808.78812 L 243.9793 810.09085 L 248.07696 810.09085 L 248.07696 808.78812 L 243.9793 808.78812 z M 169.22735 810.58109 C 168.56601 810.58109 168.04375 811.12468 168.04375 811.76468 C 168.04375 812.41535 168.56601 812.95999 169.22735 812.95999 C 169.88868 812.95999 170.4129 812.41535 170.4129 811.76468 C 170.4129 811.12468 169.88868 810.58109 169.22735 810.58109 z M 182.02813 810.58109 C 181.3668 810.58109 180.84454 811.12468 180.84454 811.76468 C 180.84454 812.41535 181.3668 812.95999 182.02813 812.95999 C 182.68946 812.95999 183.21172 812.41535 183.21172 811.76468 C 183.21172 811.12468 182.68946 810.58109 182.02813 810.58109 z M 201.22735 810.58109 C 200.56601 810.58109 200.04376 811.12468 200.04376 811.76468 C 200.04376 812.41535 200.56601 812.95999 201.22735 812.95999 C 201.88868 812.95999 202.4129 812.41535 202.4129 811.76468 C 202.4129 811.12468 201.88868 810.58109 201.22735 810.58109 z M 252.42852 810.58109 C 251.76719 810.58109 251.24493 811.12468 251.24493 811.76468 C 251.24493 812.41535 251.76719 812.95999 252.42852 812.95999 C 253.08986 812.95999 253.61212 812.41535 253.61212 811.76468 C 253.61212 811.12468 253.08986 810.58109 252.42852 810.58109 z M 290.82891 810.58109 C 290.16758 810.58109 289.64337 811.12468 289.64337 811.76468 C 289.64337 812.41535 290.16758 812.95999 290.82891 812.95999 C 291.49025 812.95999 292.01251 812.41535 292.01251 811.76468 C 292.01251 811.12468 291.49025 810.58109 290.82891 810.58109 z M 482.82892 810.58109 C 482.16758 810.58109 481.64337 811.12468 481.64337 811.76468 C 481.64337 812.41535 482.16758 812.95999 482.82892 812.95999 C 483.49025 812.95999 484.01251 812.41535 484.01251 811.76468 C 484.01251 811.12468 483.49025 810.58109 482.82892 810.58109 z M 630.02814 810.58109 C 629.3668 810.58109 628.84454 811.12468 628.84454 811.76468 C 628.84454 812.41535 629.3668 812.95999 630.02814 812.95999 C 630.68947 812.95999 631.21173 812.41535 631.21173 811.76468 C 631.21173 811.12468 630.68947 810.58109 630.02814 810.58109 z M 281.76251 813.43851 L 281.76251 814.76273 L 287.09454 814.76273 L 287.09454 813.43851 L 281.76251 813.43851 z M 473.76251 813.43851 L 473.76251 814.76273 L 479.09454 814.76273 L 479.09454 813.43851 L 473.76251 813.43851 z M 512.16095 813.43851 L 512.16095 814.76273 L 517.49493 814.76273 L 517.49493 813.43851 L 512.16095 813.43851 z M 620.96173 813.43851 L 620.96173 814.76273 L 626.29571 814.76273 L 626.29571 813.43851 L 620.96173 813.43851 z M 186.8504 817.39749 L 185.5379 818.00491 L 190.00665 827.3057 L 191.31915 826.69827 L 186.8504 817.39749 z M 433.21759 817.39749 L 428.73712 826.69827 L 430.04962 827.3057 L 434.51837 818.00491 L 433.21759 817.39749 z M 519.64923 817.39749 L 518.33673 818.00491 L 522.80743 827.3057 L 524.11993 826.69827 L 519.64923 817.39749 z M 155.63946 817.47171 L 155.63946 827.23148 L 157.20586 827.23148 L 157.20586 817.47171 L 155.63946 817.47171 z M 168.43829 817.47171 L 168.43829 827.23148 L 170.00665 827.23148 L 170.00665 817.47171 L 168.43829 817.47171 z M 206.83868 817.47171 L 206.83868 827.23148 L 208.40704 827.23148 L 208.40704 817.47171 L 206.83868 817.47171 z M 213.23907 817.47171 L 213.23907 827.23148 L 214.80743 827.23148 L 214.80743 817.47171 L 213.23907 817.47171 z M 264.43829 817.47171 L 264.43829 827.23148 L 266.00665 827.23148 L 266.00665 817.47171 L 264.43829 817.47171 z M 315.63946 817.47171 L 315.63946 827.23148 L 317.20782 827.23148 L 317.20782 817.47171 L 315.63946 817.47171 z M 341.23907 817.47171 L 341.23907 827.23148 L 342.80743 827.23148 L 342.80743 817.47171 L 341.23907 817.47171 z M 360.43829 817.47171 L 360.43829 827.23148 L 362.00665 827.23148 L 362.00665 817.47171 L 360.43829 817.47171 z M 386.03985 817.47171 L 386.03985 827.23148 L 387.60626 827.23148 L 387.60626 817.47171 L 386.03985 817.47171 z M 405.23907 817.47171 L 405.23907 827.23148 L 406.80743 827.23148 L 406.80743 817.47171 L 405.23907 817.47171 z M 450.03985 817.47171 L 450.03985 827.23148 L 451.60626 827.23148 L 451.60626 817.47171 L 450.03985 817.47171 z M 533.23907 817.47171 L 533.23907 827.23148 L 534.80743 827.23148 L 534.80743 817.47171 L 533.23907 817.47171 z M 552.43829 817.47171 L 552.43829 827.23148 L 554.00665 827.23148 L 554.00665 817.47171 L 552.43829 817.47171 z M 565.23907 817.47171 L 565.23907 827.23148 L 566.80743 827.23148 L 566.80743 817.47171 L 565.23907 817.47171 z M 584.43829 817.47171 L 584.43829 827.23148 L 586.00665 827.23148 L 586.00665 817.47171 L 584.43829 817.47171 z M 597.23907 817.47171 L 597.23907 827.23148 L 598.80743 827.23148 L 598.80743 817.47171 L 597.23907 817.47171 z M 251.62774 818.19632 L 251.83087 821.18265 L 253.02618 821.18265 L 253.21758 818.19632 L 251.62774 818.19632 z M 488.42852 818.19632 L 488.63165 821.18265 L 489.82501 821.18265 L 490.01837 818.19632 L 488.42852 818.19632 z M 501.22931 818.19632 L 501.43048 821.18265 L 502.62579 821.18265 L 502.8172 818.19632 L 501.22931 818.19632 z M 648.42853 818.19632 L 648.63165 821.18265 L 649.82501 821.18265 L 650.01837 818.19632 L 648.42853 818.19632 z M 444.42852 820.36234 C 443.79919 820.36234 443.30743 820.87348 443.30743 821.48148 C 443.30743 822.08948 443.79919 822.59085 444.42852 822.59085 C 445.05786 822.59085 445.5379 822.08948 445.5379 821.48148 C 445.5379 820.87348 445.05786 820.36234 444.42852 820.36234 z M 237.58087 822.1221 L 237.58087 823.42288 L 241.67657 823.42288 L 241.67657 822.1221 L 237.58087 822.1221 z M 243.9793 822.1221 L 243.9793 823.42288 L 248.07696 823.42288 L 248.07696 822.1221 L 243.9793 822.1221 z M 288.78008 822.1221 L 288.78008 823.42288 L 292.87579 823.42288 L 292.87579 822.1221 L 288.78008 822.1221 z M 233.22735 823.91507 C 232.56601 823.91507 232.04376 824.45866 232.04376 825.09866 C 232.04376 825.74933 232.56601 826.29202 233.22735 826.29202 C 233.88868 826.29202 234.4129 825.74933 234.4129 825.09866 C 234.4129 824.45866 233.88868 823.91507 233.22735 823.91507 z M 284.42852 823.91507 C 283.76719 823.91507 283.24493 824.45866 283.24493 825.09866 C 283.24493 825.74933 283.76719 826.29202 284.42852 826.29202 C 285.08986 826.29202 285.61212 825.74933 285.61212 825.09866 C 285.61212 824.45866 285.08986 823.91507 284.42852 823.91507 z M 297.22735 823.91507 C 296.56602 823.91507 296.04376 824.45866 296.04376 825.09866 C 296.04376 825.74933 296.56602 826.29202 297.22735 826.29202 C 297.88869 826.29202 298.4129 825.74933 298.4129 825.09866 C 298.4129 824.45866 297.88869 823.91507 297.22735 823.91507 z M 470.02813 823.91507 C 469.3668 823.91507 468.84454 824.45866 468.84454 825.09866 C 468.84454 825.74933 469.3668 826.29202 470.02813 826.29202 C 470.68947 826.29202 471.21173 825.74933 471.21173 825.09866 C 471.21173 824.45866 470.68947 823.91507 470.02813 823.91507 z M 495.62774 823.91507 C 494.96641 823.91507 494.44415 824.45866 494.44415 825.09866 C 494.44415 825.74933 494.96641 826.29202 495.62774 826.29202 C 496.28908 826.29202 496.81329 825.74933 496.81329 825.09866 C 496.81329 824.45866 496.28908 823.91507 495.62774 823.91507 z M 617.22931 823.91507 C 616.56797 823.91507 616.04376 824.45866 616.04376 825.09866 C 616.04376 825.74933 616.56797 826.29202 617.22931 826.29202 C 617.89064 826.29202 618.4129 825.74933 618.4129 825.09866 C 618.4129 824.45866 617.89064 823.91507 617.22931 823.91507 z M 642.82892 823.91507 C 642.16758 823.91507 641.64532 824.45866 641.64532 825.09866 C 641.64532 825.74933 642.16758 826.29202 642.82892 826.29202 C 643.49025 826.29202 644.01251 825.74933 644.01251 825.09866 C 644.01251 824.45866 643.49025 823.91507 642.82892 823.91507 z M 444.42852 824.06351 C 443.79919 824.06351 443.30743 824.56578 443.30743 825.16312 C 443.30743 825.78179 443.79919 826.29202 444.42852 826.29202 C 445.05786 826.29202 445.5379 825.78179 445.5379 825.16312 C 445.5379 824.56578 445.05786 824.06351 444.42852 824.06351 z M 620.96173 826.77249 L 620.96173 828.09476 L 626.29571 828.09476 L 626.29571 826.77249 L 620.96173 826.77249 z M 627.36212 826.77249 L 627.36212 828.09476 L 632.69415 828.09476 L 632.69415 826.77249 L 627.36212 826.77249 z M 633.76251 826.77249 L 633.76251 828.09476 L 639.09454 828.09476 L 639.09454 826.77249 L 633.76251 826.77249 z M 232.4168 830.53812 L 231.76641 831.80765 L 234.28399 832.8096 L 234.74297 831.95609 L 232.4168 830.53812 z M 526.8172 830.53812 L 526.16681 831.80765 L 528.68438 832.8096 L 529.14337 831.95609 L 526.8172 830.53812 z M 209.21758 830.72952 L 204.73711 840.03226 L 206.04961 840.63968 L 210.51836 831.3389 L 209.21758 830.72952 z M 446.01837 830.72952 L 441.5379 840.03226 L 442.8504 840.63968 L 447.31915 831.3389 L 446.01837 830.72952 z M 474.8504 830.72952 L 473.5379 831.3389 L 478.00665 840.63968 L 479.31915 840.03226 L 474.8504 830.72952 z M 494.04962 830.72952 L 492.73712 831.3389 L 497.20782 840.63968 L 498.51837 840.03226 L 494.04962 830.72952 z M 155.63946 830.8057 L 155.63946 840.56546 L 157.20586 840.56546 L 157.20586 830.8057 L 155.63946 830.8057 z M 213.23907 830.8057 L 213.23907 840.56546 L 214.80743 840.56546 L 214.80743 830.8057 L 213.23907 830.8057 z M 264.43829 830.8057 L 264.43829 840.56546 L 266.00665 840.56546 L 266.00665 830.8057 L 264.43829 830.8057 z M 283.63946 830.8057 L 283.63946 840.56546 L 285.20782 840.56546 L 285.20782 830.8057 L 283.63946 830.8057 z M 296.43829 830.8057 L 296.43829 840.56546 L 298.00665 840.56546 L 298.00665 830.8057 L 296.43829 830.8057 z M 315.63946 830.8057 L 315.63946 840.56546 L 317.20782 840.56546 L 317.20782 830.8057 L 315.63946 830.8057 z M 341.23907 830.8057 L 341.23907 840.56546 L 342.80743 840.56546 L 342.80743 830.8057 L 341.23907 830.8057 z M 360.43829 830.8057 L 360.43829 840.56546 L 362.00665 840.56546 L 362.00665 830.8057 L 360.43829 830.8057 z M 386.03985 830.8057 L 386.03985 840.56546 L 387.60626 840.56546 L 387.60626 830.8057 L 386.03985 830.8057 z M 450.03985 830.8057 L 450.03985 840.56546 L 451.60626 840.56546 L 451.60626 830.8057 L 450.03985 830.8057 z M 469.23907 830.8057 L 469.23907 840.56546 L 470.80743 840.56546 L 470.80743 830.8057 L 469.23907 830.8057 z M 597.23907 830.8057 L 597.23907 840.56546 L 598.80743 840.56546 L 598.80743 830.8057 L 597.23907 830.8057 z M 616.43829 830.8057 L 616.43829 840.56546 L 618.00665 840.56546 L 618.00665 830.8057 L 616.43829 830.8057 z M 168.42852 831.5303 L 168.63165 834.51663 L 169.82501 834.51663 L 170.01836 831.5303 L 168.42852 831.5303 z M 187.62774 831.5303 L 187.83086 834.51663 L 189.02618 834.51663 L 189.21758 831.5303 L 187.62774 831.5303 z M 405.22735 831.5303 L 405.43048 834.51663 L 406.62579 834.51663 L 406.8172 831.5303 L 405.22735 831.5303 z M 424.42852 831.5303 L 424.63165 834.51663 L 425.82501 834.51663 L 426.01837 831.5303 L 424.42852 831.5303 z M 533.22931 831.5303 L 533.43048 834.51663 L 534.62579 834.51663 L 534.8172 831.5303 L 533.22931 831.5303 z M 552.42853 831.5303 L 552.63165 834.51663 L 553.82501 834.51663 L 554.01837 831.5303 L 552.42853 831.5303 z M 565.22931 831.5303 L 565.43048 834.51663 L 566.62579 834.51663 L 566.8172 831.5303 L 565.22931 831.5303 z M 584.42853 831.5303 L 584.63165 834.51663 L 585.82501 834.51663 L 586.01837 831.5303 L 584.42853 831.5303 z M 173.58086 835.45609 L 173.58086 836.75687 L 177.67657 836.75687 L 177.67657 835.45609 L 173.58086 835.45609 z M 179.9793 835.45609 L 179.9793 836.75687 L 184.07696 836.75687 L 184.07696 835.45609 L 179.9793 835.45609 z M 237.58087 835.45609 L 237.58087 836.75687 L 241.67657 836.75687 L 241.67657 835.45609 L 237.58087 835.45609 z M 243.9793 835.45609 L 243.9793 836.75687 L 248.07696 836.75687 L 248.07696 835.45609 L 243.9793 835.45609 z M 250.37969 835.45609 L 250.37969 836.75687 L 254.4754 836.75687 L 254.4754 835.45609 L 250.37969 835.45609 z M 410.3797 835.45609 L 410.3797 836.75687 L 414.4754 836.75687 L 414.4754 835.45609 L 410.3797 835.45609 z M 416.78009 835.45609 L 416.78009 836.75687 L 420.87579 836.75687 L 420.87579 835.45609 L 416.78009 835.45609 z M 557.58087 835.45609 L 557.58087 836.75687 L 561.67657 836.75687 L 561.67657 835.45609 L 557.58087 835.45609 z M 258.82891 837.2471 C 258.16758 837.2471 257.64337 837.79069 257.64337 838.4307 C 257.64337 839.08136 258.16758 839.62601 258.82891 839.62601 C 259.49025 839.62601 260.01251 839.08136 260.01251 838.4307 C 260.01251 837.79069 259.49025 837.2471 258.82891 837.2471 z M 386.19805 843.62601 L 385.22735 844.51077 C 386.65669 846.07878 387.24493 847.28397 387.24493 849.04398 C 387.24493 850.80398 386.76335 851.90446 385.22735 853.57913 L 386.19805 854.4639 C 387.88339 853.01323 388.95001 851.37998 388.95001 849.04398 C 388.95001 846.70797 387.88339 845.07668 386.19805 843.62601 z M 155.61797 843.8721 L 154.96758 845.14163 L 157.48321 846.14359 L 157.94219 845.29007 L 155.61797 843.8721 z M 213.21758 843.8721 L 212.56719 845.14163 L 215.08477 846.14359 L 215.54376 845.29007 L 213.21758 843.8721 z M 264.4168 843.8721 L 263.76641 845.14163 L 266.28399 846.14359 L 266.74297 845.29007 L 264.4168 843.8721 z M 296.4168 843.8721 L 295.76641 845.14163 L 298.28399 846.14359 L 298.74298 845.29007 L 296.4168 843.8721 z M 341.21759 843.8721 L 340.56719 845.14163 L 343.08477 846.14359 L 343.54376 845.29007 L 341.21759 843.8721 z M 450.01837 843.8721 L 449.36602 845.14163 L 451.8836 846.14359 L 452.34259 845.29007 L 450.01837 843.8721 z M 539.61798 843.8721 L 538.96759 845.14163 L 541.48517 846.14359 L 541.9422 845.29007 L 539.61798 843.8721 z M 597.21759 843.8721 L 596.5672 845.14163 L 599.08478 846.14359 L 599.54376 845.29007 L 597.21759 843.8721 z M 391.64923 844.06351 L 390.33673 844.67093 L 394.80743 853.97366 L 396.11993 853.36429 L 391.64923 844.06351 z M 200.42852 844.86429 L 200.63165 847.85062 L 201.82501 847.85062 L 202.01836 844.86429 L 200.42852 844.86429 z M 258.02813 844.86429 L 258.23126 847.85062 L 259.42462 847.85062 L 259.61797 844.86429 L 258.02813 844.86429 z M 283.62774 844.86429 L 283.83087 847.85062 L 285.02618 847.85062 L 285.21758 844.86429 L 283.62774 844.86429 z M 315.62774 844.86429 L 315.83087 847.85062 L 317.02618 847.85062 L 317.21759 844.86429 L 315.62774 844.86429 z M 360.42852 844.86429 L 360.63165 847.85062 L 361.82501 847.85062 L 362.01837 844.86429 L 360.42852 844.86429 z M 437.22735 844.86429 L 437.43048 847.85062 L 438.62579 847.85062 L 438.8172 844.86429 L 437.22735 844.86429 z M 469.22735 844.86429 L 469.43048 847.85062 L 470.62579 847.85062 L 470.8172 844.86429 L 469.22735 844.86429 z M 482.02813 844.86429 L 482.23126 847.85062 L 483.42657 847.85062 L 483.61798 844.86429 L 482.02813 844.86429 z M 501.22931 844.86429 L 501.43048 847.85062 L 502.62579 847.85062 L 502.8172 844.86429 L 501.22931 844.86429 z M 578.02814 844.86429 L 578.23126 847.85062 L 579.42657 847.85062 L 579.61798 844.86429 L 578.02814 844.86429 z M 616.42853 844.86429 L 616.63165 847.85062 L 617.82501 847.85062 L 618.01837 844.86429 L 616.42853 844.86429 z M 160.78008 848.78812 L 160.78008 850.09085 L 164.87579 850.09085 L 164.87579 848.78812 L 160.78008 848.78812 z M 167.18047 848.78812 L 167.18047 850.09085 L 171.27618 850.09085 L 171.27618 848.78812 L 167.18047 848.78812 z M 173.58086 848.78812 L 173.58086 850.09085 L 177.67657 850.09085 L 177.67657 848.78812 L 173.58086 848.78812 z M 179.9793 848.78812 L 179.9793 850.09085 L 184.07696 850.09085 L 184.07696 848.78812 L 179.9793 848.78812 z M 186.37969 848.78812 L 186.37969 850.09085 L 190.4754 850.09085 L 190.4754 848.78812 L 186.37969 848.78812 z M 192.78008 848.78812 L 192.78008 850.09085 L 196.87579 850.09085 L 196.87579 848.78812 L 192.78008 848.78812 z M 218.37969 848.78812 L 218.37969 850.09085 L 222.4754 850.09085 L 222.4754 848.78812 L 218.37969 848.78812 z M 224.78008 848.78812 L 224.78008 850.09085 L 228.87579 850.09085 L 228.87579 848.78812 L 224.78008 848.78812 z M 231.18047 848.78812 L 231.18047 850.09085 L 235.27618 850.09085 L 235.27618 848.78812 L 231.18047 848.78812 z M 237.58087 848.78812 L 237.58087 850.09085 L 241.67657 850.09085 L 241.67657 848.78812 L 237.58087 848.78812 z M 243.9793 848.78812 L 243.9793 850.09085 L 248.07696 850.09085 L 248.07696 848.78812 L 243.9793 848.78812 z M 250.37969 848.78812 L 250.37969 850.09085 L 254.4754 850.09085 L 254.4754 848.78812 L 250.37969 848.78812 z M 269.58087 848.78812 L 269.58087 850.09085 L 273.67657 850.09085 L 273.67657 848.78812 L 269.58087 848.78812 z M 275.9793 848.78812 L 275.9793 850.09085 L 280.07696 850.09085 L 280.07696 848.78812 L 275.9793 848.78812 z M 301.58087 848.78812 L 301.58087 850.09085 L 305.67657 850.09085 L 305.67657 848.78812 L 301.58087 848.78812 z M 307.9793 848.78812 L 307.9793 850.09085 L 312.07696 850.09085 L 312.07696 848.78812 L 307.9793 848.78812 z M 346.37969 848.78812 L 346.37969 850.09085 L 350.4754 850.09085 L 350.4754 848.78812 L 346.37969 848.78812 z M 352.78009 848.78812 L 352.78009 850.09085 L 356.87579 850.09085 L 356.87579 848.78812 L 352.78009 848.78812 z M 397.58087 848.78812 L 397.58087 850.09085 L 401.67657 850.09085 L 401.67657 848.78812 L 397.58087 848.78812 z M 403.9793 848.78812 L 403.9793 850.09085 L 408.07696 850.09085 L 408.07696 848.78812 L 403.9793 848.78812 z M 410.3797 848.78812 L 410.3797 850.09085 L 414.4754 850.09085 L 414.4754 848.78812 L 410.3797 848.78812 z M 416.78009 848.78812 L 416.78009 850.09085 L 420.87579 850.09085 L 420.87579 848.78812 L 416.78009 848.78812 z M 423.18048 848.78812 L 423.18048 850.09085 L 427.27618 850.09085 L 427.27618 848.78812 L 423.18048 848.78812 z M 429.58087 848.78812 L 429.58087 850.09085 L 433.67657 850.09085 L 433.67657 848.78812 L 429.58087 848.78812 z M 455.18048 848.78812 L 455.18048 850.09085 L 459.27618 850.09085 L 459.27618 848.78812 L 455.18048 848.78812 z M 461.58087 848.78812 L 461.58087 850.09085 L 465.67657 850.09085 L 465.67657 848.78812 L 461.58087 848.78812 z M 487.18048 848.78812 L 487.18048 850.09085 L 491.27618 850.09085 L 491.27618 848.78812 L 487.18048 848.78812 z M 493.58087 848.78812 L 493.58087 850.09085 L 497.67657 850.09085 L 497.67657 848.78812 L 493.58087 848.78812 z M 544.78009 848.78812 L 544.78009 850.09085 L 548.87579 850.09085 L 548.87579 848.78812 L 544.78009 848.78812 z M 551.18048 848.78812 L 551.18048 850.09085 L 555.27618 850.09085 L 555.27618 848.78812 L 551.18048 848.78812 z M 557.58087 848.78812 L 557.58087 850.09085 L 561.67657 850.09085 L 561.67657 848.78812 L 557.58087 848.78812 z M 563.98126 848.78812 L 563.98126 850.09085 L 568.07696 850.09085 L 568.07696 848.78812 L 563.98126 848.78812 z M 570.3797 848.78812 L 570.3797 850.09085 L 574.47735 850.09085 L 574.47735 848.78812 L 570.3797 848.78812 z M 602.3797 848.78812 L 602.3797 850.09085 L 606.47735 850.09085 L 606.47735 848.78812 L 602.3797 848.78812 z M 608.78009 848.78812 L 608.78009 850.09085 L 612.87579 850.09085 L 612.87579 848.78812 L 608.78009 848.78812 z M 381.05743 856.95999 C 379.37209 858.41066 378.30548 860.04196 378.30548 862.37796 C 378.30548 864.71397 379.37209 866.34721 381.05743 867.79788 L 382.02813 866.91116 C 380.49213 865.23649 380.01251 864.13797 380.01251 862.37796 C 380.01251 860.61796 380.5988 859.41276 382.02813 857.84476 L 381.05743 856.95999 z M 398.99884 856.95999 L 398.02813 857.84476 C 399.45747 859.41276 400.04376 860.61796 400.04376 862.37796 C 400.04376 864.13797 399.56414 865.23649 398.02813 866.91116 L 398.99884 867.79788 C 400.68417 866.34721 401.75079 864.71397 401.75079 862.37796 C 401.75079 860.04196 400.68417 858.41066 398.99884 856.95999 z M 384.16095 866.77249 L 384.16095 868.09476 L 389.49493 868.09476 L 389.49493 866.77249 L 384.16095 866.77249 z M 390.56134 866.77249 L 390.56134 868.09476 L 395.89532 868.09476 L 395.89532 866.77249 L 390.56134 866.77249 z M 606.01837 870.72952 L 601.5379 880.03226 L 602.8504 880.63968 L 607.31915 871.3389 L 606.01837 870.72952 z M 609.24884 870.72952 L 607.93829 871.3389 L 612.40704 880.63968 L 613.71954 880.03226 L 609.24884 870.72952 z M 598.65704 883.62601 C 596.9717 885.07668 595.90509 886.70993 595.90509 889.04593 C 595.90509 891.38194 596.9717 893.01323 598.65704 894.4639 L 599.62774 893.57913 C 598.09174 891.90446 597.61212 890.80593 597.61212 889.04593 C 597.61212 887.28593 598.19841 886.07878 599.62774 884.51077 L 598.65704 883.62601 z M 616.59845 883.62601 L 615.62775 884.51077 C 617.05708 886.07878 617.64532 887.28593 617.64532 889.04593 C 617.64532 890.80593 617.16375 891.90446 615.62775 893.57913 L 616.59845 894.4639 C 618.28379 893.01323 619.3504 891.38194 619.3504 889.04593 C 619.3504 886.70993 618.28379 885.07668 616.59845 883.62601 z M 601.76251 893.44046 L 601.76251 894.76273 L 607.09454 894.76273 L 607.09454 893.44046 L 601.76251 893.44046 z M 608.16095 893.44046 L 608.16095 894.76273 L 613.49493 894.76273 L 613.49493 893.44046 L 608.16095 893.44046 z M 583.64923 897.39749 L 582.33868 898.00492 L 586.80743 907.3057 L 588.11993 906.69827 L 583.64923 897.39749 z M 631.61798 897.39749 L 627.13751 906.69827 L 628.45001 907.3057 L 632.91876 898.00492 L 631.61798 897.39749 z M 578.82892 903.91507 C 578.16758 903.91507 577.67657 904.4157 577.67657 905.0557 C 577.67657 905.46103 577.85853 905.81397 578.17853 906.01663 L 577.6336 908.2764 L 578.76446 908.2764 L 579.53204 906.53812 C 579.84138 905.84478 579.99103 905.49213 579.99103 905.06546 C 579.99103 904.41479 579.50092 903.91507 578.82892 903.91507 z M 591.62774 903.91507 C 590.96641 903.91507 590.44415 904.45866 590.44415 905.09867 C 590.44415 905.74933 590.96641 906.29398 591.62774 906.29398 C 592.28908 906.29398 592.81329 905.74933 592.81329 905.09867 C 592.81329 904.45866 592.28908 903.91507 591.62774 903.91507 z M 623.62775 903.91507 C 622.96641 903.91507 622.44415 904.45866 622.44415 905.09867 C 622.44415 905.74933 622.96641 906.29398 623.62775 906.29398 C 624.28908 906.29398 624.81329 905.74933 624.81329 905.09867 C 624.81329 904.45866 624.28908 903.91507 623.62775 903.91507 z M 636.42853 903.91507 C 635.76719 903.91507 635.27618 904.4157 635.27618 905.0557 C 635.27618 905.46103 635.45814 905.81397 635.77814 906.01663 L 635.23321 908.2764 L 636.36407 908.2764 L 637.13165 906.53812 C 637.44099 905.84478 637.59064 905.49213 637.59064 905.06546 C 637.59064 904.41479 637.10053 903.91507 636.42853 903.91507 z M 583.64923 910.72952 L 582.33868 911.3389 L 586.80743 920.63968 L 588.11993 920.03226 L 583.64923 910.72952 z M 596.45001 910.72952 L 595.13751 911.3389 L 599.60626 920.63968 L 600.91876 920.03226 L 596.45001 910.72952 z M 618.8172 910.72952 L 614.33868 920.03226 L 615.64923 920.63968 L 620.11993 911.3389 L 618.8172 910.72952 z M 631.61798 910.72952 L 627.13751 920.03226 L 628.45001 920.63968 L 632.91876 911.3389 L 631.61798 910.72952 z "
       transform="matrix(0.26458333,0,0,0.26458333,-9.8027762,-94.701539)" />
  </g>
</svg>
